<svg id="Layer_1" data-name="Layer 1" xmlns="http://www.w3.org/2000/svg" viewBox="0 0 34.99 34.99"><defs><style>.cls-1{fill:#9fc9eb;stroke:#33669a;stroke-miterlimit:10;}.cls-2{font-size:13.26px;fill:#33669a;font-family:Helvetica Neue;}</style></defs><title>favicon</title><path class="cls-1" d="M34.09,1H21.86a0.9,0.9,0,0,0-.64.26l-20,20a0.9,0.9,0,0,0,0,1.27L13.5,34.73a0.9,0.9,0,0,0,1.27,0l20-20A0.9,0.9,0,0,0,35,14.14V1.9A0.9,0.9,0,0,0,34.09,1Zm-2.51,5.2a1.87,1.87,0,1,1,1.87-1.87A1.87,1.87,0,0,1,31.58,6.21Z" transform="translate(-0.51 -0.51)"/><text class="cls-2" transform="translate(11.32 28.73) rotate(-45)">a - z</text></svg>